# Blender v3.2.2 OBJ File: 'arch set 1 named.blend'
# www.blender.org
mtllib 7.mtl
o 7_rect6591.004
v 0.500000 -0.183496 0.379516
v 0.500000 -0.500000 0.500000
v -0.500000 -0.500000 0.232024
v -0.500000 -0.183497 0.379515
v -0.500000 0.500000 0.500000
v 0.500000 0.108346 -0.420114
v -0.500000 -0.500000 0.500000
v 0.500000 -0.500000 0.232024
v 0.500000 0.152340 0.469532
v -0.500000 0.152339 0.469532
v 0.500000 0.500000 0.500000
vt 0.879515 -0.316721
vt 1.000000 -0.000218
vt 0.732024 -0.000218
vt 0.969532 -0.652557
vt 1.000000 -1.000217
vt 1.120480 -0.316721
vt 1.267972 -0.000217
vt 0.999996 -0.000217
vt 1.030464 -0.652556
vt 0.999996 -1.000216
vt 1.999996 -0.732241
vt 1.999996 -1.000217
vt 0.999996 -1.000217
vt 0.999996 -0.732241
vt 1.999996 -1.000216
vt 1.999996 -0.000217
vt 1.999995 -0.316721
vt 1.999996 -0.000218
vt 0.999996 -0.000217
vt 0.999996 -0.316721
vt 1.999995 -0.652557
vt 0.999996 -0.652556
vt 1.999995 -1.000217
vn 1.0000 0.0000 0.0000
vn -1.0000 -0.0000 -0.0000
vn 0.0000 -1.0000 -0.0000
vn -0.0000 0.0000 1.0000
vn 0.0000 0.3419 -0.9397
vn 0.0000 0.5000 -0.8660
vn 0.0000 0.1738 -0.9848
vn 0.0000 0.0001 -1.0000
vn 0.0000 0.0000 -1.0000
usemtl sandstone_brick
s off
f 1/1/1 2/2/1 8/3/1
f 1/1/1 9/4/1 2/2/1
f 9/4/1 11/5/1 2/2/1
f 4/6/2 3/7/2 7/8/2
f 4/6/2 7/8/2 10/9/2
f 10/9/2 7/8/2 5/10/2
f 8/11/3 2/12/3 7/13/3 3/14/3
f 2/2/4 11/5/4 5/15/4 7/16/4
s 1
f 1/17/5 8/18/6 3/19/6 4/20/5
f 9/21/7 1/17/5 4/20/5 10/22/7
f 11/23/8 9/21/7 10/22/7 5/10/9
