# Blender v3.2.2 OBJ File: 'arch set 1 named.blend'
# www.blender.org
mtllib arch_lancet.mtl
o arch_lancet_path7819.001
v 0.500000 -0.500000 0.500000
v 0.500000 0.500000 0.500000
v 0.477701 0.289934 0.500000
v 0.413102 0.092352 0.500000
v 0.309649 -0.086784 0.500000
v 0.170789 -0.241504 0.500000
v -0.000031 -0.365842 0.500000
v -0.169276 -0.242901 0.500000
v -0.308884 -0.087899 0.500000
v -0.413692 0.093609 0.500000
v -0.478143 0.291997 0.500000
v -0.500000 0.500000 0.500000
v -0.500000 -0.500000 0.500000
v 0.500000 -0.500000 -0.500000
v 0.500000 0.500000 -0.500000
v 0.477701 0.289934 -0.500000
v 0.413102 0.092352 -0.500000
v 0.309649 -0.086783 -0.500000
v 0.170789 -0.241504 -0.500000
v -0.000031 -0.365842 -0.500000
v -0.169276 -0.242901 -0.500000
v -0.308884 -0.087899 -0.500000
v -0.413692 0.093609 -0.500000
v -0.478143 0.291998 -0.500000
v -0.500000 0.500000 -0.500000
v -0.500000 -0.500000 -0.500000
v -0.000031 -0.365842 0.500000
v -0.000031 -0.365842 -0.500000
v -0.020037 -0.380223 0.500000
v 0.019765 -0.380405 0.500000
v 0.019765 -0.380404 -0.500000
v -0.020037 -0.380223 -0.500000
vt 0.086898 0.407648
vt 0.190351 0.586783
vt -0.000000 1.000000
vt 0.329210 0.741504
vt 0.500030 0.865842
vt 0.999999 0.999999
vt 0.669275 0.742901
vt 0.500030 0.865842
vt 0.808883 0.587899
vt 0.913691 0.406392
vt 0.022299 0.210066
vt 0.978142 0.208003
vt 0.999999 0.000000
vt -0.000000 0.000000
vt 0.913101 0.407648
vt 1.000000 1.000000
vt 0.809649 0.586783
vt 0.670789 0.741504
vt 0.499969 0.865842
vt 0.000000 0.999999
vt 0.330724 0.742901
vt 0.499969 0.865842
vt 0.191116 0.587899
vt 0.086308 0.406391
vt 0.977701 0.210066
vt 0.021857 0.208003
vt 0.000000 0.000000
vt 1.000000 0.000000
vt 0.999996 0.999999
vt 1.999995 0.999999
vt 1.999995 0.000000
vt 0.999996 0.000000
vt 1.999995 0.000001
vt 1.999995 1.000000
vt 1.000000 0.000001
vt 0.000000 1.000000
vt 0.000000 0.000001
vt 0.999996 0.586783
vt 0.999996 0.407648
vt 1.999995 0.407648
vt 1.999995 0.586783
vt 0.999996 0.741504
vt 1.999995 0.741504
vt 0.999996 0.865842
vt 1.999995 0.865842
vt 0.999996 0.742901
vt 0.999996 0.865842
vt 1.999995 0.865842
vt 1.999995 0.742901
vt 0.999996 0.587899
vt 1.999995 0.587899
vt 0.999996 0.406392
vt 1.999995 0.406392
vt 0.999996 0.210066
vt 1.999995 0.210067
vt 0.999996 0.208003
vt 1.999995 0.208003
vt 1.999995 0.000001
vt 1.999995 0.880404
vt 0.999996 0.880404
vt 0.999996 0.880223
vt 1.999995 0.880223
vn 0.0000 -0.0000 1.0000
vn 0.0000 0.0000 -1.0000
vn -0.0000 -1.0000 -0.0000
vn -1.0000 0.0000 0.0000
vn 1.0000 -0.0000 -0.0000
vn -0.8095 0.5872 0.0000
vn -0.9131 0.4076 0.0000
vn -0.6701 0.7423 0.0000
vn -0.5885 0.8085 0.0000
vn 0.6690 0.7432 0.0000
vn 0.5877 0.8091 0.0000
vn 0.8090 0.5879 0.0000
vn 0.9135 0.4067 0.0000
vn -0.9778 0.2093 0.0000
vn 0.9782 0.2079 0.0000
vn -0.9944 0.1056 0.0000
vn 0.9945 0.1045 0.0000
vn -0.5926 -0.8055 -0.0000
vn 0.5837 -0.8120 -0.0000
usemtl sandstone_brick
s off
f 4/1/1 5/2/1 1/3/1
f 5/2/1 6/4/1 1/3/1
f 6/4/1 27/5/1 1/3/1
f 27/5/1 13/6/1 1/3/1
f 8/7/1 13/6/1 7/8/1
f 9/9/1 13/6/1 8/7/1
f 10/10/1 13/6/1 9/9/1
f 1/3/1 3/11/1 4/1/1
f 11/12/1 13/6/1 10/10/1
f 11/12/1 12/13/1 13/6/1
f 2/14/1 3/11/1 1/3/1
f 17/15/2 14/16/2 18/17/2
f 18/17/2 14/16/2 19/18/2
f 19/18/2 14/16/2 28/19/2
f 28/19/2 14/16/2 26/20/2
f 21/21/2 20/22/2 26/20/2
f 22/23/2 21/21/2 26/20/2
f 23/24/2 22/23/2 26/20/2
f 14/16/2 17/15/2 16/25/2
f 24/26/2 23/24/2 26/20/2
f 24/26/2 26/20/2 25/27/2
f 15/28/2 14/16/2 16/25/2
f 1/29/3 13/30/3 26/31/3 14/32/3
f 13/6/4 12/13/4 25/33/4 26/34/4
f 2/35/5 1/29/5 14/36/5 15/37/5
s 1
f 5/38/6 4/39/7 17/40/7 18/41/6
f 6/42/8 5/38/6 18/41/6 19/43/8
f 27/44/9 6/42/8 19/43/8 28/45/9
f 8/46/10 7/47/11 20/48/11 21/49/10
f 9/50/12 8/46/10 21/49/10 22/51/12
f 10/52/13 9/50/12 22/51/12 23/53/13
f 4/39/7 3/54/14 16/55/14 17/40/7
f 11/56/15 10/52/13 23/53/13 24/57/15
f 3/54/14 2/35/16 15/58/16 16/55/14
f 12/13/17 11/56/15 24/57/15 25/33/17
f 28/45/18 31/59/18 30/60/18 27/44/18
f 29/61/19 32/62/19 20/48/19 7/47/19
