# Blender v3.2.2 OBJ File: 'arch set 1 named.blend'
# www.blender.org
mtllib inflexed_arch.mtl
o inflexed_arch_path6891-5.004
v -0.500000 0.231889 0.500000
v -0.500000 -0.500000 0.500000
v -0.232023 -0.500000 0.500000
v 0.232058 -0.500000 0.500000
v 0.500000 -0.500000 0.500000
v 0.500000 0.231888 0.500000
v 0.233375 0.047650 0.500000
v 0.000003 -0.177215 0.500000
v -0.233357 0.047650 0.500000
v -0.500000 0.231889 -0.500000
v -0.500000 -0.500000 -0.500000
v -0.232023 -0.500000 -0.500000
v 0.232058 -0.500000 -0.500000
v 0.500000 -0.500000 -0.500000
v 0.500000 0.231888 -0.500000
v 0.233375 0.047650 -0.500000
v 0.000003 -0.177215 -0.500000
v -0.233357 0.047650 -0.500000
vt 0.999999 1.000000
vt 0.733356 0.452350
vt 0.999999 0.268112
vt 0.266625 0.452350
vt -0.000000 1.000000
vt -0.000001 0.268112
vt 0.499996 0.677215
vt 1.267973 0.000000
vt 1.999995 0.000000
vt 0.999996 0.000000
vt 1.732054 0.000000
vt 0.000000 1.000000
vt 0.000000 0.268112
vt 0.266643 0.452350
vt 0.733375 0.452350
vt 1.000000 0.268112
vt 1.000000 1.000000
vt 0.500003 0.677215
vt 1.267973 0.999999
vt 0.999996 0.999999
vt 1.999995 0.999999
vt 1.732054 0.999999
vt 1.999996 1.000000
vt 1.999995 0.268112
vt 0.999996 0.268112
vt 1.999995 0.268112
vt 1.999996 1.000000
vt 1.732042 0.999999
vt 2.000020 0.000000
vt 1.732042 0.000000
vt 1.267961 0.999999
vt 1.267962 0.000000
vt 1.000020 0.999999
vt 1.000020 0.000000
vt 1.999996 0.452350
vt 0.999996 0.452350
vt 1.999996 0.452350
vt 0.999996 0.452350
vt 1.999996 0.677215
vt 0.999996 0.677215
vn -0.0000 -0.0000 1.0000
vn 0.0000 0.0000 -1.0000
vn 0.0000 0.1328 0.9911
vn 0.0000 0.2260 -0.9741
vn -1.0000 0.0000 0.0000
vn 1.0000 -0.0000 0.0000
vn -0.0000 -1.0000 -0.0000
vn 0.5685 0.8227 0.0000
vn 0.6333 0.7739 0.0000
vn -0.6333 0.7739 0.0000
vn -0.5685 0.8227 0.0000
vn 0.6939 0.7201 0.0000
vn -0.6939 0.7201 0.0000
usemtl sandstone_brick
s off
f 2/1/1 9/2/1 1/3/1
f 7/4/1 5/5/1 6/6/1
f 2/1/1 8/7/1 9/2/1
f 8/7/1 5/5/1 7/4/1
f 2/1/1 5/5/1 8/7/1
f 3/8/1 5/9/1 2/10/1
f 4/11/2 5/9/2 3/8/2
f 11/12/2 10/13/2 18/14/2
f 16/15/2 15/16/2 14/17/2
f 11/12/2 18/14/2 17/18/2
f 17/18/2 16/15/2 14/17/2
f 11/12/2 17/18/2 14/17/2
f 12/19/3 11/20/3 14/21/3
f 13/22/4 12/19/4 14/21/4
f 2/23/5 1/24/5 10/25/5 11/20/5
f 6/26/6 5/27/6 14/17/6 15/16/6
f 3/28/7 2/23/7 11/29/7 12/30/7
f 4/31/7 3/28/7 12/30/7 13/32/7
f 5/33/7 4/31/7 13/32/7 14/34/7
s 1
f 1/24/8 9/35/9 18/36/9 10/25/8
f 7/37/10 6/26/11 15/16/11 16/38/10
f 9/35/9 8/39/12 17/40/12 18/36/9
f 8/39/13 7/37/10 16/38/10 17/40/13
