# Blender v3.2.2 OBJ File: 'arch set 1 named.blend'
# www.blender.org
mtllib inflexed_arch_top.mtl
o inflexed_arch_top_rect6589-1.004
v 0.500000 -0.500000 0.500000
v 0.500000 -0.232095 0.500000
v 0.233361 -0.047856 0.500000
v 0.000001 0.177009 0.500000
v -0.233371 -0.047856 0.500000
v -0.500000 -0.232094 0.500000
v -0.500000 -0.500000 0.500000
v 0.500000 -0.500000 -0.500000
v 0.500000 -0.232095 -0.500000
v 0.233361 -0.047856 -0.500000
v 0.000001 0.177009 -0.500000
v -0.233371 -0.047856 -0.500000
v -0.500000 -0.232094 -0.500000
v -0.500000 -0.500000 -0.500000
v 0.000001 0.177009 0.500000
v 0.000001 0.177009 -0.500000
vt 0.999999 0.267905
vt -0.000000 0.000000
vt 0.999999 0.000000
vt -0.000000 0.267906
vt 0.733361 0.452144
vt 0.266629 0.452144
vt 0.500001 0.677009
vt 0.000000 0.267905
vt 0.000000 0.000000
vt 1.000000 0.000000
vt 1.000000 0.267906
vt 0.266638 0.452144
vt 0.733370 0.452144
vt 0.499998 0.677009
vt 0.000000 0.267906
vt 0.000000 0.000000
vt 1.000000 0.000000
vt 0.999999 0.267906
vt 0.000000 0.999999
vt 1.000000 1.000000
vt 0.999999 0.000001
vt 1.000000 0.267906
vt 0.000000 0.267906
vt 0.000000 0.000001
vt 0.000000 0.597602
vt 0.999999 0.597603
vt 1.000000 0.597603
vt 0.000001 0.597603
vt 0.000000 1.000001
vt 0.999999 1.000002
vt 1.000000 1.000001
vt 0.000001 1.000002
vn -0.0000 -0.0000 1.0000
vn -0.0000 0.0000 -1.0000
vn 1.0000 -0.0000 -0.0000
vn -0.0000 -1.0000 -0.0000
vn -1.0000 0.0000 0.0000
vn 0.6333 0.7739 0.0000
vn 0.5685 0.8227 0.0000
vn -0.5685 0.8227 0.0000
vn -0.6332 0.7739 0.0000
vn 0.6939 0.7201 0.0000
vn -0.6939 0.7201 0.0000
usemtl sandstone_brick
s off
f 2/1/1 7/2/1 1/3/1
f 2/1/1 6/4/1 7/2/1
f 3/5/1 6/4/1 2/1/1
f 3/5/1 5/6/1 6/4/1
f 15/7/1 5/6/1 3/5/1
f 9/8/2 8/9/2 14/10/2
f 9/8/2 14/10/2 13/11/2
f 10/12/2 9/8/2 13/11/2
f 10/12/2 13/11/2 12/13/2
f 16/14/2 10/12/2 12/13/2
f 2/15/3 1/16/3 8/17/3 9/18/3
f 1/3/4 7/2/4 14/19/4 8/20/4
f 7/21/5 6/22/5 13/23/5 14/24/5
s 1
f 3/25/6 2/15/7 9/18/7 10/26/6
f 6/22/8 5/27/9 12/28/9 13/23/8
f 15/29/10 3/25/6 10/26/6 16/30/10
f 5/27/9 4/31/11 11/32/11 12/28/9
