# Blender v3.2.2 OBJ File: 'arch set 1 named.blend'
# www.blender.org
mtllib ogee_arch.mtl
o ogee_arch_path1722-1-7.004
v 0.450085 0.299435 0.500000
v 0.325688 0.137963 0.500000
v 0.164676 -0.011169 0.500000
v 0.085818 -0.085892 0.500000
v 0.000003 -0.177261 0.500000
v -0.085813 -0.085891 0.500000
v -0.164670 -0.011169 0.500000
v -0.325683 0.137959 0.500000
v -0.450088 0.299430 0.500000
v -0.500000 0.500000 0.500000
v -0.500000 0.430341 0.500000
v -0.500000 0.301342 0.500000
v -0.500000 0.231881 0.500000
v -0.500000 -0.500000 0.500000
v -0.231992 -0.500000 0.500000
v 0.232028 -0.500000 0.500000
v 0.500000 -0.500000 0.500000
v 0.500000 0.231880 0.500000
v 0.500000 0.500000 0.500000
v 0.500000 0.500000 -0.500000
v 0.450085 0.299435 -0.500000
v 0.325688 0.137963 -0.500000
v 0.164676 -0.011169 -0.500000
v 0.085818 -0.085892 -0.500000
v 0.000003 -0.177261 -0.500000
v -0.085813 -0.085891 -0.500000
v -0.164670 -0.011169 -0.500000
v -0.325683 0.137959 -0.500000
v -0.450088 0.299430 -0.500000
v -0.500000 0.500000 -0.500000
v -0.500000 0.430341 -0.500000
v -0.500000 0.301342 -0.500000
v -0.500000 0.231881 -0.500000
v -0.500000 -0.500000 -0.500000
v -0.231992 -0.500000 -0.500000
v 0.232028 -0.500000 -0.500000
v 0.500000 -0.500000 -0.500000
v 0.500000 0.231880 -0.500000
vt 0.999999 0.069659
vt 0.950088 0.200570
vt 0.999999 0.000000
vt 0.049914 0.200565
vt -0.000000 0.268120
vt -0.000001 0.000000
vt 0.999999 0.198659
vt 0.999999 0.268120
vt 0.174312 0.362037
vt 0.825682 0.362041
vt 0.999999 1.000000
vt -0.000000 1.000000
vt 0.335324 0.511169
vt 0.664669 0.511169
vt 0.585812 0.585891
vt 0.414181 0.585892
vt 0.499997 0.677261
vt 1.731987 0.000000
vt 0.999996 0.000000
vt 1.999996 0.000000
vt 1.732023 0.000000
vt 1.999995 0.000000
vt 1.268004 0.000000
vt 0.000000 0.069659
vt 0.000000 0.000000
vt 0.049912 0.200570
vt 0.950085 0.200565
vt 1.000000 0.000000
vt 1.000000 0.268120
vt 0.000000 0.198659
vt 0.000000 0.268120
vt 0.825688 0.362037
vt 0.174317 0.362041
vt 0.000000 1.000000
vt 1.000000 1.000000
vt 0.664676 0.511169
vt 0.335330 0.511169
vt 0.414187 0.585892
vt 0.585818 0.585892
vt 0.500003 0.677261
vt 1.731987 0.999999
vt 1.999996 0.999999
vt 1.732023 0.999999
vt 1.268004 0.999999
vt 1.999995 0.999999
vt 1.999995 0.000000
vt 1.999995 0.069660
vt 0.999996 0.000001
vt 0.999996 0.268120
vt 1.999995 0.268120
vt 1.999995 0.000001
vt 1.999995 0.198659
vt 1.999995 0.268120
vt 0.999996 1.000000
vt 1.732011 0.999999
vt 2.000020 0.999999
vt 2.000020 0.000000
vt 1.732012 0.000000
vt 1.267992 0.999999
vt 1.267992 0.000000
vt 1.000020 0.000000
vt 0.999996 0.200565
vt 1.999995 0.200565
vt 0.999996 0.200570
vt 1.999995 0.200571
vt 0.999996 0.362037
vt 1.999995 0.362038
vt 0.999996 0.362041
vt 1.999995 0.362041
vt 0.999996 0.511169
vt 1.999995 0.511169
vt 0.999996 0.511169
vt 1.999995 0.511169
vt 0.999996 0.585891
vt 1.999995 0.585892
vt 0.999996 0.585891
vt 1.999995 0.585892
vt 0.999996 0.677261
vt 1.999995 0.677261
vn 0.0000 0.0000 1.0000
vn 0.0000 0.0000 -1.0000
vn 0.0000 0.7071 0.7071
vn 0.0000 0.4209 -0.9071
vn -1.0000 0.0000 0.0000
vn 1.0000 -0.0000 -0.0000
vn -0.0000 -1.0000 -0.0000
vn -0.9004 0.4351 0.0000
vn -0.9704 0.2415 0.0000
vn 0.9704 0.2415 0.0000
vn 0.9004 0.4351 0.0000
vn -0.7384 0.6743 0.0000
vn 0.7384 0.6743 0.0000
vn -0.6837 0.7298 0.0000
vn 0.6837 0.7298 0.0000
vn 0.7087 0.7055 0.0000
vn -0.7087 0.7055 0.0000
vn 0.7289 0.6846 0.0000
vn -0.7289 0.6846 0.0000
usemtl sandstone_brick
s off
f 11/1/1 9/2/1 10/3/1
f 1/4/1 18/5/1 19/6/1
f 12/7/1 9/2/1 11/1/1
f 13/8/1 9/2/1 12/7/1
f 2/9/1 18/5/1 1/4/1
f 13/8/1 8/10/1 9/2/1
f 14/11/1 8/10/1 13/8/1
f 2/9/1 17/12/1 18/5/1
f 3/13/1 17/12/1 2/9/1
f 14/11/1 7/14/1 8/10/1
f 14/11/1 6/15/1 7/14/1
f 4/16/1 17/12/1 3/13/1
f 14/11/1 5/17/1 6/15/1
f 5/17/1 17/12/1 4/16/1
f 14/11/1 17/12/1 5/17/1
f 15/18/1 17/19/1 14/20/1
f 16/21/2 17/22/2 15/23/2
f 31/24/2 30/25/2 29/26/2
f 21/27/2 20/28/2 38/29/2
f 32/30/2 31/24/2 29/26/2
f 33/31/2 32/30/2 29/26/2
f 22/32/2 21/27/2 38/29/2
f 33/31/2 29/26/2 28/33/2
f 34/34/2 33/31/2 28/33/2
f 22/32/2 38/29/2 37/35/2
f 23/36/2 22/32/2 37/35/2
f 34/34/2 28/33/2 27/37/2
f 34/34/2 27/37/2 26/38/2
f 24/39/2 23/36/2 37/35/2
f 34/34/2 26/38/2 25/40/2
f 25/40/2 24/39/2 37/35/2
f 34/34/2 25/40/2 37/35/2
f 35/41/3 34/42/3 37/35/3
f 36/43/4 35/44/4 37/45/4
f 11/1/5 10/3/5 30/46/5 31/47/5
f 19/48/6 18/49/6 38/50/6 20/51/6
f 12/7/5 11/1/5 31/47/5 32/52/5
f 13/8/5 12/7/5 32/52/5 33/53/5
f 14/11/5 13/8/5 33/53/5 34/42/5
f 18/49/6 17/54/6 37/45/6 38/50/6
f 15/55/7 14/56/7 34/57/7 35/58/7
f 16/59/7 15/55/7 35/58/7 36/60/7
f 17/54/7 16/59/7 36/60/7 37/61/7
s 1
f 1/62/8 19/48/9 20/51/9 21/63/8
f 10/3/10 9/64/11 29/65/11 30/46/10
f 2/66/12 1/62/8 21/63/8 22/67/12
f 9/64/11 8/68/13 28/69/13 29/65/11
f 3/70/14 2/66/12 22/67/12 23/71/14
f 8/68/13 7/72/15 27/73/15 28/69/13
f 7/72/15 6/74/16 26/75/16 27/73/15
f 4/76/17 3/70/14 23/71/14 24/77/17
f 6/74/16 5/78/18 25/79/18 26/75/16
f 5/78/19 4/76/17 24/77/17 25/79/19
