# Blender v3.2.2 OBJ File: 'arch set 1 named.blend'
# www.blender.org
mtllib ogee_arch_side_2.mtl
o ogee_arch_side_2_path1722-1.007
v -0.500000 0.500000 0.500000
v -0.500000 0.232087 0.500000
v -0.500000 -0.500000 0.500000
v -0.500000 -0.500000 -0.232057
v -0.500000 -0.325169 -0.110808
v -0.500000 -0.159395 0.022803
v -0.500000 -0.085654 0.085784
v -0.500000 -0.010963 0.164671
v -0.500000 0.138164 0.325691
v -0.500000 0.299635 0.450104
v 0.500000 0.500000 0.500000
v 0.500000 0.232087 0.500000
v 0.500000 -0.500000 0.500000
v 0.500000 -0.500000 -0.232057
v 0.500000 -0.325169 -0.110808
v 0.500000 -0.159396 0.022804
v 0.500000 -0.085655 0.085784
v 0.500000 -0.010963 0.164672
v 0.500000 0.138164 0.325692
v 0.500000 0.299635 0.450104
vt 1.049892 -0.799852
vt 0.999996 -0.732304
vt 0.999996 -1.000217
vt 1.174304 -0.638381
vt 0.999996 -0.000218
vt 1.335324 -0.489255
vt 1.414212 -0.414563
vt 1.477192 -0.340822
vt 1.610804 -0.175049
vt 1.732053 -0.000218
vt 0.950103 -0.799852
vt 1.000000 -1.000216
vt 1.000000 -0.732304
vt 0.825691 -0.638381
vt 1.000000 -0.000218
vt 0.664671 -0.489254
vt 0.585783 -0.414563
vt 0.522803 -0.340822
vt 0.389192 -0.175049
vt 0.267943 -0.000218
vt 1.999996 -1.000217
vt 1.999996 -0.732304
vt 1.999996 -0.000218
vt 0.999996 -1.000217
vt 0.999996 -0.268160
vt 1.999995 -0.268160
vt 1.999995 -1.000217
vt 0.999996 -0.799852
vt 1.999995 -1.000216
vt 1.999995 -0.799852
vt 0.999996 -0.638381
vt 1.999995 -0.638381
vt 0.999996 -0.489255
vt 1.999995 -0.489254
vt 0.999996 -0.414563
vt 1.999995 -0.414563
vt 0.999996 -0.340822
vt 1.999995 -0.340822
vt 0.999996 -0.175049
vt 1.999995 -0.175049
vt 0.999996 -0.000218
vt 1.999995 -0.000218
vn -1.0000 -0.0000 0.0000
vn 1.0000 -0.0000 0.0000
vn -0.0000 0.0000 1.0000
vn -0.0000 -1.0000 0.0000
vn 0.0000 0.4352 -0.9003
vn 0.0000 0.2416 -0.9704
vn 0.0000 0.6744 -0.7384
vn 0.0000 0.7299 -0.6835
vn 0.0000 0.6888 -0.7250
vn 0.0000 0.6386 -0.7696
vn 0.0000 0.5991 -0.8007
vn 0.0000 0.5699 -0.8217
usemtl sandstone_brick
s off
f 10/1/1 2/2/1 1/3/1
f 9/4/1 2/2/1 10/1/1
f 9/4/1 3/5/1 2/2/1
f 8/6/1 3/5/1 9/4/1
f 7/7/1 3/5/1 8/6/1
f 6/8/1 3/5/1 7/7/1
f 5/9/1 3/5/1 6/8/1
f 4/10/1 3/5/1 5/9/1
f 20/11/2 11/12/2 12/13/2
f 19/14/2 20/11/2 12/13/2
f 19/14/2 12/13/2 13/15/2
f 18/16/2 19/14/2 13/15/2
f 17/17/2 18/16/2 13/15/2
f 16/18/2 17/17/2 13/15/2
f 15/19/2 16/18/2 13/15/2
f 14/20/2 15/19/2 13/15/2
f 1/21/3 2/22/3 12/13/3 11/12/3
f 2/22/3 3/23/3 13/15/3 12/13/3
f 3/24/4 4/25/4 14/26/4 13/27/4
s 1
f 10/28/5 1/3/6 11/29/6 20/30/5
f 9/31/7 10/28/5 20/30/5 19/32/7
f 8/33/8 9/31/7 19/32/7 18/34/8
f 7/35/9 8/33/8 18/34/8 17/36/9
f 6/37/10 7/35/9 17/36/9 16/38/10
f 5/39/11 6/37/10 16/38/10 15/40/11
f 4/41/12 5/39/11 15/40/11 14/42/12
