# Blender v3.2.2 OBJ File: 'arch set 1 named.blend'
# www.blender.org
mtllib pointed_segmented_arch.mtl
o pointed_segmented_arch_rect6893.004
v 0.500000 -0.500000 0.500000
v 0.500000 -0.232102 0.500000
v 0.256898 -0.351255 0.500000
v -0.000029 -0.436494 0.500000
v -0.256949 -0.351261 0.500000
v -0.500000 -0.232125 0.500000
v -0.500000 -0.500000 0.500000
v 0.500000 -0.500000 -0.500000
v 0.500000 -0.232102 -0.500000
v 0.256898 -0.351255 -0.500000
v -0.000029 -0.436494 -0.500000
v -0.256949 -0.351261 -0.500000
v -0.500000 -0.232125 -0.500000
v -0.500000 -0.500000 -0.500000
v -0.000029 -0.436494 0.500000
v -0.000029 -0.436494 -0.500000
vt -0.000000 0.732102
vt 0.243101 0.851255
vt -0.000000 1.000000
vt 0.500029 0.936494
vt 0.999999 0.999999
vt 0.756949 0.851261
vt 0.500029 0.936494
vt 0.999999 0.732125
vt 1.000000 0.732102
vt 1.000000 1.000000
vt 0.756898 0.851255
vt 0.499971 0.936494
vt 0.000000 0.999999
vt 0.243051 0.851261
vt 0.499971 0.936494
vt 0.000000 0.732125
vt 0.999996 0.732102
vt 0.999996 1.000000
vt 1.999995 1.000000
vt 1.999995 0.732102
vt 1.999996 0.999999
vt 1.999996 0.000000
vt 0.999996 0.000000
vt 1.999995 0.732125
vt 1.999995 1.000000
vt 1.000107 0.242991
vt 1.000106 -0.000111
vt 2.000106 -0.000111
vt 2.000106 0.242991
vt 1.000107 0.499919
vt 2.000106 0.499919
vt 1.000107 0.756839
vt 1.000107 0.499919
vt 2.000106 0.499919
vt 2.000106 0.756838
vt 1.000107 0.999889
vt 2.000106 0.999889
vn 0.0000 -0.0000 1.0000
vn 0.0000 -0.0000 -1.0000
vn 1.0000 -0.0000 -0.0000
vn -0.0000 -1.0000 -0.0000
vn -1.0000 0.0000 0.0000
vn -0.3784 0.9257 0.0000
vn -0.4401 0.8979 0.0000
vn -0.3149 0.9491 0.0000
vn 0.3784 0.9257 0.0000
vn 0.3149 0.9491 0.0000
vn 0.4401 0.8979 0.0000
usemtl sandstone_brick
s off
f 2/1/1 3/2/1 1/3/1
f 3/2/1 15/4/1 1/3/1
f 15/4/1 7/5/1 1/3/1
f 5/6/1 7/5/1 4/7/1
f 5/6/1 6/8/1 7/5/1
f 9/9/2 8/10/2 10/11/2
f 10/11/2 8/10/2 16/12/2
f 16/12/2 8/10/2 14/13/2
f 12/14/2 11/15/2 14/13/2
f 12/14/2 14/13/2 13/16/2
f 2/17/3 1/18/3 8/19/3 9/20/3
f 1/18/4 7/21/4 14/22/4 8/23/4
f 7/5/5 6/8/5 13/24/5 14/25/5
s 1
f 3/26/6 2/27/7 9/28/7 10/29/6
f 15/30/8 3/26/6 10/29/6 16/31/8
f 5/32/9 4/33/10 11/34/10 12/35/9
f 6/36/11 5/32/9 12/35/9 13/37/11
