# Blender v3.2.2 OBJ File: 'arch set 1 named.blend'
# www.blender.org
mtllib pointed_segmented_arch_top.mtl
o pointed_segmented_arch_top_rect6603-5.004
v -0.256946 0.351052 0.500000
v -0.500000 0.231896 0.500000
v -0.500000 -0.500000 0.500000
v 0.500000 -0.500000 0.500000
v 0.500000 0.231896 0.500000
v 0.256935 0.351052 0.500000
v -0.256946 0.351052 -0.500000
v -0.500000 0.231896 -0.500000
v -0.500000 -0.500000 -0.500000
v 0.500000 -0.500000 -0.500000
v 0.500000 0.231896 -0.500000
v 0.256935 0.351052 -0.500000
v 0.000000 0.436287 -0.500000
v 0.000000 0.436287 0.500000
v 0.000000 0.436287 0.500000
v 0.000000 0.436287 -0.500000
v 0.000000 0.436287 0.500000
v 0.000000 0.436287 -0.500000
vt 0.243053 0.851052
vt 0.756935 0.851052
vt 0.500000 0.936287
vt -0.000000 0.731896
vt 0.999999 0.731896
vt 0.999999 0.000000
vt -0.000000 0.000000
vt 0.756946 0.851051
vt 0.500000 0.936287
vt 0.243065 0.851051
vt 1.000000 0.731896
vt 0.000000 0.731896
vt 0.000000 0.000000
vt 1.000000 0.000000
vt 0.000000 0.731896
vt 0.000000 0.000001
vt 1.000000 0.000001
vt 1.000000 0.731896
vt 1.000000 0.000001
vt 1.000000 0.731896
vt 0.000000 0.731896
vt 0.000000 0.000001
vt 0.000000 1.000000
vt 1.000000 1.000000
vt -0.000111 -0.243165
vt -0.000111 -0.500112
vt 0.999889 -0.500112
vt 0.999889 -0.243166
vt -0.000111 -0.500112
vt -0.000111 -0.757047
vt 0.999889 -0.757047
vt 0.999889 -0.500112
vt -0.000111 -0.000112
vt 0.999889 -0.000112
vt -0.000111 -1.000112
vt 0.999889 -1.000112
vn 0.0000 0.0000 1.0000
vn 0.0000 0.0000 -1.0000
vn 1.0000 0.0000 0.0000
vn -1.0000 0.0000 0.0000
vn 0.0000 -1.0000 -0.0000
vn -0.3784 0.9256 0.0000
vn -0.3149 0.9491 0.0000
vn 0.3149 0.9491 0.0000
vn 0.3784 0.9256 0.0000
vn -0.4402 0.8979 0.0000
vn 0.4402 0.8979 0.0000
usemtl sandstone_brick
s off
f 1/1/1 6/2/1 15/3/1
f 2/4/1 6/2/1 1/1/1
f 2/4/1 5/5/1 6/2/1
f 2/4/1 4/6/1 5/5/1
f 3/7/1 4/6/1 2/4/1
f 7/8/2 16/9/2 12/10/2
f 8/11/2 7/8/2 12/10/2
f 8/11/2 12/10/2 11/12/2
f 8/11/2 11/12/2 10/13/2
f 9/14/2 8/11/2 10/13/2
f 5/15/3 4/16/3 10/17/3 11/18/3
f 3/19/4 2/20/4 8/21/4 9/22/4
f 4/6/5 3/7/5 9/23/5 10/24/5
s 1
f 1/25/6 14/26/7 13/27/7 7/28/6
f 17/29/8 6/30/9 12/31/9 18/32/8
f 2/33/10 1/25/6 7/28/6 8/34/10
f 6/30/9 5/35/11 11/36/11 12/31/9
